<svg width="30" height="30" viewBox="0 0 30 30" fill="none" xmlns="http://www.w3.org/2000/svg">
<mask id="mask0_67_1140" style="mask-type:alpha" maskUnits="userSpaceOnUse" x="0" y="0" width="30" height="30">
<rect width="30" height="30" fill="#D9D9D9"/>
</mask>
<g mask="url(#mask0_67_1140)">
<path d="M2.5 24.4504V19.9651H27.5V24.4504H2.5ZM7.5 15.4798H9.25L19 6.76149L17.2188 5.1636L7.5 13.9099V15.4798ZM5 17.7224V12.9568L19 0.426011C19.2292 0.220435 19.4948 0.0615809 19.7969 -0.0505515C20.099 -0.162684 20.4167 -0.21875 20.75 -0.21875C21.0833 -0.21875 21.4062 -0.162684 21.7188 -0.0505515C22.0312 0.0615809 22.3125 0.229779 22.5625 0.454044L24.2813 2.0239C24.5313 2.22947 24.7135 2.47243 24.8281 2.75276C24.9427 3.03309 25 3.32276 25 3.62178C25 3.90211 24.9427 4.17777 24.8281 4.44876C24.7135 4.71975 24.5313 4.96737 24.2813 5.19164L10.3125 17.7224H5Z" fill="#1C1B1F"/>
</g>
</svg>
